<?xml version="1.0" encoding="utf-8"?>
<!-- Generator: Adobe Illustrator 23.0.3, SVG Export Plug-In . SVG Version: 6.00 Build 0)  -->
<svg version="1.1" id="レイヤー_1" xmlns="http://www.w3.org/2000/svg" xmlns:xlink="http://www.w3.org/1999/xlink" x="0px"
	 y="0px" viewBox="0 0 100 100" style="enable-background:new 0 0 100 100;" xml:space="preserve">
<style type="text/css">
	.st0{fill:none;}
	.st1{fill:#312F2F;}
</style>
<rect class="st0" width="100" height="100"/>
<path class="st1" d="M50,72.1c-1.5,0-3.1-0.9-4.3-2.7c-8.2-12.2-8.8-13.2-8.8-14.1s0.8-1.6,1.7-1.6c1.2,0,1.3,0.1,9,13.2
	c0.2,0.4,0.4,0.6,0.6,0.6s0.3-0.3,0.3-0.9c0-10.3,0-41.7-0.1-53c0-1.1,0.9-1.7,1.7-1.7c0.9,0,1.7,0.6,1.7,1.7
	c-0.1,11.3-0.1,42.7-0.1,53c0,0.6,0.1,0.9,0.4,0.9c0.1,0,0.4-0.1,0.6-0.5c1.7-2.7,6-10.3,7.6-12.6c0.4-0.6,0.9-0.8,1.4-0.8
	c0.9,0,1.7,0.6,1.7,1.7c0,0.6-0.4,1.8-8.8,14.1C53.2,71.1,51.5,72.1,50,72.1z"/>
</svg>
