<?xml version="1.0" encoding="utf-8"?>
<!-- Generator: Adobe Illustrator 23.0.2, SVG Export Plug-In . SVG Version: 6.00 Build 0)  -->
<svg version="1.1" id="レイヤー_1" xmlns="http://www.w3.org/2000/svg" xmlns:xlink="http://www.w3.org/1999/xlink" x="0px"
	 y="0px" viewBox="0 0 300 100" style="enable-background:new 0 0 300 100;" xml:space="preserve">
<style type="text/css">
	.st0{fill:none;}
	.st1{fill:#312F2F;}
</style>
<g>
	<rect class="st0" width="300" height="100"/>
</g>
<g>
	<path class="st1" d="M21.3,62.2c-4.32,0-8.28-0.52-8.56-4.8c-0.12-1.96-0.2-5.2-0.2-8.56c0-4.44,0.12-9.08,0.24-11.28
		c0.32-4.84,4.2-4.84,8.4-4.84c1.2,0,2.36,0.04,2.96,0.08c8.84,0.56,13.48,6.68,13.48,14.6C37.62,61.52,26.62,62.2,21.3,62.2z
		 M23.58,35.08c-0.28,0-0.92-0.04-1.64-0.04c-3.92,0-6.4,0.04-6.6,2.84c-0.12,1.6-0.2,5.84-0.2,10.04c0,3.64,0.04,7.2,0.2,8.88
		c0.2,1.92,0.92,3.08,5.24,3.08c5.56,0,14.4-0.28,14.4-12.48C34.98,40.32,30.82,35.28,23.58,35.08z"/>
	<path class="st1" d="M45.94,61.08c0,0.72-0.56,1.08-1.16,1.08c-0.64,0-1.28-0.4-1.28-1.12V61c0.08-3.24,0.16-7,0.16-10.44
		c0-2.24-0.04-4.36-0.08-6.12V44.4c0-0.64,0.64-1.04,1.24-1.04c0.6,0,1.2,0.36,1.2,1.12c0,0.6-0.04,0.88-0.04,1.44
		c0,0.12,0.04,0.2,0.04,0.2c0.04,0,0.12-0.08,0.16-0.16c1.76-2.44,5.36-2.68,5.84-2.68c0.84,0,1.24,0.52,1.24,1.08
		c0,0.56-0.44,1.16-1.24,1.16c-2.84,0-6,1.8-6.08,4.88c-0.04,1.04-0.04,2.88-0.04,5.16c0,1.64,0,3.52,0.04,5.48V61.08z"/>
	<path class="st1" d="M56.62,52.76c0-5.56,3.92-9.56,9.24-9.56c5.32,0,9.32,4,9.32,9.56c0,5.76-4,9.6-9.32,9.6
		C60.54,62.36,56.62,58.52,56.62,52.76z M72.82,52.76c0-4.52-3.12-7.48-6.96-7.48c-3.84,0-6.92,2.96-6.92,7.48
		c0,4.48,3.08,7.44,6.92,7.44C69.7,60.2,72.82,57.24,72.82,52.76z"/>
	<path class="st1" d="M81.34,71.12c0.04-3.08,0.08-9.36,0.08-15.12c0-4.76-0.04-9.12-0.08-11.12v-0.04c0-0.88,0.56-1.28,1.16-1.28
		s1.24,0.4,1.24,1.2c0,0.44-0.04,1.16-0.04,1.52c0,0.24,0,0.4,0.08,0.4c0.08,0,0.16-0.12,0.32-0.32c1.4-1.88,3.72-3.08,6.44-3.08
		c5.2,0,9.08,3.92,9.08,9.56c0,5.72-3.88,9.48-9.08,9.48c-2.36,0-4.72-0.96-6.32-2.92c-0.24-0.28-0.36-0.48-0.44-0.48
		c-0.08,0-0.08,0.16-0.08,0.64c0,1.04,0.04,7.52,0.04,10.4c0,1.64,0,2.56-1.2,2.56c-0.6,0-1.2-0.44-1.2-1.36V71.12z M97.26,52.84
		c0-4.48-3-7.44-6.8-7.44c-3.8,0-6.8,2.96-6.8,7.44s3,7.36,6.8,7.36C94.26,60.2,97.26,57.32,97.26,52.84z"/>
	<path class="st1" d="M119.14,60.76c0.04-1.16,0.04-3.12,0.04-5.28c0-4.28-0.04-9.16-0.04-9.16c0-0.48-0.04-0.52-0.52-0.52h-2.56
		c-0.68,0-1.04-0.52-1.04-1.08c0-0.56,0.36-1.12,1.04-1.12h2.56c0.44,0,0.56-0.04,0.56-0.44c0-0.4-0.04-1.48-0.04-2.76v-1.04
		c0.12-4.32,3.32-6.68,6.44-6.68c0.4,0,1.8,0.04,1.8,1.12c0,0.56-0.44,1.08-1.2,1.08h-0.48c-2.6,0-4.12,2.12-4.24,4.72v1.24
		c0,0.96,0,1.84,0.04,2.36c0,0.36,0.08,0.4,0.48,0.4h4.16c0.68,0,1.04,0.56,1.04,1.08c0,0.56-0.36,1.12-1.04,1.12h-4.2
		c-0.4,0-0.44,0.04-0.44,0.52c0,0,0.08,11.12,0.08,14.44c0,0.84-0.6,1.28-1.24,1.28c-0.6,0-1.2-0.4-1.2-1.24V60.76z M132.22,36.4
		c-1.88,0-1.88-1.72-1.88-1.96c0-1.24,1.12-1.84,1.92-1.84c0.6,0,1.96,0.32,1.96,1.84C134.22,35.68,133.22,36.4,132.22,36.4z
		 M133.54,60.92c0,0.8-0.64,1.2-1.28,1.2c-0.6,0-1.24-0.4-1.24-1.2c0-3.4,0.04-8.08,0.04-11.8c0-1.88,0-3.52-0.04-4.64v-0.04
		c0-0.72,0.64-1.12,1.28-1.12c0.6,0,1.24,0.36,1.24,1.08v0.04c-0.04,1.68-0.08,4.96-0.08,8.4c0,2.84,0.04,5.8,0.08,8.04V60.92z"/>
	<path class="st1" d="M144.06,60.72c0,0.84-0.6,1.24-1.24,1.24s-1.24-0.4-1.24-1.24v-0.04c0.08-2.88,0.08-8.72,0.08-14.2
		c0-5.52,0-10.76-0.08-12.4v-0.04c0-0.88,0.64-1.28,1.28-1.28c0.6,0,1.2,0.4,1.2,1.2V34c-0.04,1.84-0.08,7.8-0.08,13.84
		c0,4.96,0.04,10,0.08,12.84V60.72z"/>
	<path class="st1" d="M159.34,62.36c-5.08,0-9.04-3.8-9.04-9.44c0-5.84,4.2-9.68,8.92-9.68c5.48,0,7.88,4.28,7.88,6.56
		c0,1.52-0.92,2.64-2.92,2.68c-0.92,0.04-2.28,0.04-3.76,0.04c-3,0-6.4-0.04-7.28-0.04c-0.4,0-0.48,0.16-0.48,0.72
		c0,4.36,2.88,7.04,6.72,7.04c2.92,0,4.56-1.24,5.8-2.64c0.24-0.24,0.52-0.36,0.8-0.36c0.6,0,1.2,0.52,1.2,1.16
		C167.18,59.32,164.38,62.36,159.34,62.36z M159.26,45.24c-3.84,0-6.28,3.44-6.28,4.92c0,0.4,0.36,0.4,5,0.4
		c2.08,0,4.32,0,5.44-0.04c0.96-0.04,1.32-0.48,1.32-1.12C164.74,48.24,163.34,45.24,159.26,45.24z"/>
	<path class="st1" d="M177.74,62.4c-4.16,0-6.48-2.4-6.48-3.52c0-0.68,0.6-1.16,1.2-1.16c0.36,0,0.72,0.16,1,0.52
		c0.88,1.24,2.32,2,4.28,2c2.28,0,4-1.28,4-3c0-2.12-1.72-2.92-6.36-5c-2.2-0.96-3.24-2.72-3.24-4.44c0-2.36,1.92-4.6,5.44-4.6
		c3.4,0,5.56,1.72,5.56,2.8c0,0.64-0.52,1.16-1.16,1.16c-0.32,0-0.72-0.16-1.04-0.56c-0.64-0.76-1.64-1.4-3.36-1.4
		c-2.04,0-3.2,1.2-3.2,2.52c0,0.96,0.64,1.96,1.96,2.6c1.12,0.52,2.96,1.28,4.2,1.92c2.48,1.28,3.56,3.16,3.56,5
		C184.1,59.52,182.22,62.4,177.74,62.4z"/>
	<path class="st1" d="M215.01,61c0.04-1.68,0.08-4.8,0.08-7.32c0-1.64-0.04-3.04-0.08-3.68c-0.2-3.32-2.32-4.68-4.6-4.68
		c-2.76,0-5.8,2.08-5.92,5.2c-0.04,1.24-0.08,3.6-0.08,6.44c0,1.28,0,2.64,0.04,4.08v0.04c0,0.72-0.56,1.08-1.16,1.08
		s-1.24-0.4-1.24-1.12V61c0.08-3.12,0.12-10.36,0.12-16.72c0-4.48,0-8.52-0.04-10.36v-0.04c0-0.64,0.6-1,1.2-1s1.2,0.36,1.2,1.12
		c0,1.48-0.04,10.96-0.04,11.8c0,0.12,0.04,0.2,0.08,0.2s0.08-0.08,0.16-0.16c1.4-1.8,3.68-2.72,5.92-2.72
		c3.32,0,6.52,2.08,6.68,6.44c0.04,1.28,0.08,4.24,0.08,7c0,1.68,0,3.32-0.04,4.4c0,0.8-0.6,1.2-1.16,1.2c-0.6,0-1.2-0.4-1.2-1.12
		V61z"/>
	<path class="st1" d="M231.86,62.36c-5.08,0-9.04-3.8-9.04-9.44c0-5.84,4.2-9.68,8.92-9.68c5.48,0,7.88,4.28,7.88,6.56
		c0,1.52-0.92,2.64-2.92,2.68c-0.92,0.04-2.28,0.04-3.76,0.04c-3,0-6.4-0.04-7.28-0.04c-0.4,0-0.48,0.16-0.48,0.72
		c0,4.36,2.88,7.04,6.72,7.04c2.92,0,4.56-1.24,5.8-2.64c0.24-0.24,0.52-0.36,0.8-0.36c0.6,0,1.2,0.52,1.2,1.16
		C239.69,59.32,236.89,62.36,231.86,62.36z M231.78,45.24c-3.84,0-6.28,3.44-6.28,4.92c0,0.4,0.36,0.4,5,0.4
		c2.08,0,4.32,0,5.44-0.04c0.96-0.04,1.32-0.48,1.32-1.12C237.25,48.24,235.85,45.24,231.78,45.24z"/>
	<path class="st1" d="M247.86,61.08c0,0.72-0.56,1.08-1.16,1.08c-0.64,0-1.28-0.4-1.28-1.12V61c0.08-3.24,0.16-7,0.16-10.44
		c0-2.24-0.04-4.36-0.08-6.12V44.4c0-0.64,0.64-1.04,1.24-1.04s1.2,0.36,1.2,1.12c0,0.6-0.04,0.88-0.04,1.44
		c0,0.12,0.04,0.2,0.04,0.2c0.04,0,0.12-0.08,0.16-0.16c1.76-2.44,5.36-2.68,5.84-2.68c0.84,0,1.24,0.52,1.24,1.08
		c0,0.56-0.44,1.16-1.24,1.16c-2.84,0-6,1.8-6.08,4.88c-0.04,1.04-0.04,2.88-0.04,5.16c0,1.64,0,3.52,0.04,5.48V61.08z"/>
	<path class="st1" d="M267.7,62.36c-5.08,0-9.04-3.8-9.04-9.44c0-5.84,4.2-9.68,8.92-9.68c5.48,0,7.88,4.28,7.88,6.56
		c0,1.52-0.92,2.64-2.92,2.68c-0.92,0.04-2.28,0.04-3.76,0.04c-3,0-6.4-0.04-7.28-0.04c-0.4,0-0.48,0.16-0.48,0.72
		c0,4.36,2.88,7.04,6.72,7.04c2.92,0,4.56-1.24,5.8-2.64c0.24-0.24,0.52-0.36,0.8-0.36c0.6,0,1.2,0.52,1.2,1.16
		C275.53,59.32,272.73,62.36,267.7,62.36z M267.62,45.24c-3.84,0-6.28,3.44-6.28,4.92c0,0.4,0.36,0.4,5,0.4c2.08,0,4.32,0,5.44-0.04
		c0.96-0.04,1.32-0.48,1.32-1.12C273.09,48.24,271.69,45.24,267.62,45.24z"/>
	<path class="st1" d="M284.42,62.04c-1.08,0-1.92-0.84-1.92-1.76c0-1.32,1.2-1.96,1.92-1.96c1.72,0,1.84,1.56,1.84,1.92
		C286.26,61.48,285.22,62.04,284.42,62.04z M284.34,53.84c-0.52,0-1-0.36-1-1.04v-1.64c0-4-0.2-11.84-0.36-16.92v-0.08
		c0-0.92,0.68-1.4,1.4-1.4s1.44,0.48,1.44,1.48c0,4.72-0.4,13.76-0.4,17.6v0.88C285.42,53.44,284.86,53.84,284.34,53.84z"/>
</g>
</svg>
