<?xml version="1.0" encoding="utf-8"?>
<!-- Generator: Adobe Illustrator 23.0.3, SVG Export Plug-In . SVG Version: 6.00 Build 0)  -->
<svg version="1.1" id="レイヤー_1" xmlns="http://www.w3.org/2000/svg" xmlns:xlink="http://www.w3.org/1999/xlink" x="0px"
	 y="0px" viewBox="0 0 100 100" style="enable-background:new 0 0 100 100;" xml:space="preserve">
<style type="text/css">
	.st0{fill:none;}
	.st1{fill:#312F2F;}
</style>
<rect class="st0" width="100" height="100"/>
<path class="st1" d="M27.8,82c9.5,0.1,18.5,0.3,27.1,0.3c5.9,0,11.7-0.1,17.2-0.3c3.9-0.1,5.7-2.2,5.8-5c0-2.2-0.1-3.9-0.2-6.8V70
	c0-1.4,1.1-2.2,2.2-2.2c2.1,0,2.1,1.5,2.1,7c0,0.7,0,1.6-0.1,2.8c-0.2,5.2-3.9,8.2-9.4,8.3c-9.4,0.1-17.6,0.2-26,0.2
	c-6,0-12.2-0.1-19-0.1c-5.7-0.1-9.1-3.5-9.4-8.4v-2.3c0-1.8,0-3.3,0.1-5.3c0-1.4,1.1-2,2.1-2s2,0.6,2,1.9v0.3C22.1,71,22,71.7,22,77
	C22.1,79.9,23.9,81.9,27.8,82z"/>
</svg>
