<?xml version="1.0" encoding="utf-8"?>
<!-- Generator: Adobe Illustrator 23.0.2, SVG Export Plug-In . SVG Version: 6.00 Build 0)  -->
<svg version="1.1" id="レイヤー_1" xmlns="http://www.w3.org/2000/svg" xmlns:xlink="http://www.w3.org/1999/xlink" x="0px"
	 y="0px" viewBox="0 0 100 45" style="enable-background:new 0 0 100 45;" xml:space="preserve">
<style type="text/css">
	.st0{fill:none;}
	.st1{fill:#FFFFFF;}
</style>
<g>
	<rect x="0" class="st0" width="100" height="45"/>
</g>
<g>
	<path class="st1" d="M14.1,34.37c-7.42,0-11.46-5.73-11.46-11.71c0-5.95,3.97-12.06,11.65-12.06c4.9,0,8.06,2.88,8.06,4.03
		c0,0.61-0.48,1.06-1.06,1.06c-0.29,0-0.64-0.13-0.9-0.48c-1.5-1.89-3.87-2.78-6.27-2.78c-6.3,0-9.41,5.57-9.41,10.11
		c0,4.74,3.07,9.79,9.31,9.79c2.88,0,5.73-1.15,7.29-3.26c0.26-0.38,0.61-0.51,0.93-0.51c0.61,0,1.18,0.51,1.18,1.15
		C23.44,30.88,19.73,34.37,14.1,34.37z"/>
	<path class="st1" d="M36.66,31.78c-0.96,1.63-3.1,2.62-5.06,2.62c-3.23,0-5.18-2.21-5.18-4.42c0-1.6,1.06-3.23,3.42-3.97
		c1.98-0.61,4.58-1.09,5.92-1.31c0.38-0.06,0.51-0.16,0.51-0.38c0-0.16,0.03-0.35,0.03-0.51c0-1.76-0.74-3.14-3.33-3.14
		c-1.73,0-3.01,0.74-3.74,1.54c-0.19,0.22-0.45,0.32-0.67,0.32c-0.48,0-0.9-0.35-0.9-0.86c0-1.22,2.69-2.59,5.44-2.59
		c2.98,0,4.99,1.31,4.99,4.9c0,0.29,0,0.58-0.03,0.9c-0.1,1.06-0.16,2.5-0.16,3.55c0,2.66,0.51,3.3,1.79,3.97
		c0.26,0.13,0.35,0.38,0.35,0.64c0,0.45-0.38,0.99-0.96,0.99c-0.19,0-1.79-0.45-2.24-2.21c-0.03-0.1-0.03-0.13-0.1-0.13
		C36.75,31.68,36.69,31.72,36.66,31.78z M36.21,27.78c0-0.35,0.03-0.7,0.03-1.09c0-0.26-0.1-0.35-0.32-0.35h-0.1
		c-5.02,0.8-7.68,1.44-7.68,3.68c0,1.34,1.28,2.69,3.42,2.69C34.51,32.71,36.21,30.5,36.21,27.78z"/>
	<path class="st1" d="M54.51,33.35c0.03-1.34,0.06-3.84,0.06-5.86c0-1.31-0.03-2.43-0.06-2.94c-0.16-2.59-1.79-3.68-3.58-3.68
		c-2.24,0-4.77,1.73-4.83,4.29c-0.03,0.99-0.06,2.75-0.06,4.96c0,1.02,0,2.08,0.03,3.23v0.03c0,0.58-0.45,0.86-0.93,0.86
		c-0.48,0-0.99-0.32-0.99-0.9v-0.03c0.06-2.59,0.13-5.57,0.13-8.29c0-1.79-0.03-3.46-0.06-4.86v-0.03c0-0.51,0.51-0.83,1.02-0.83
		c0.45,0,0.9,0.26,0.9,0.86v1.22c0,0.1,0.03,0.13,0.03,0.13c0.03,0,0.1-0.03,0.13-0.1c1.15-1.54,2.98-2.3,4.74-2.3
		c2.66,0,5.22,1.73,5.34,5.12c0.03,1.02,0.06,3.39,0.06,5.6c0,1.34,0,2.66-0.03,3.52c0,0.64-0.45,0.93-0.93,0.93
		c-0.48,0-0.96-0.32-0.96-0.9V33.35z"/>
	<path class="st1" d="M68.24,34.37c-4.93,0-7.52-3.74-7.52-7.55c0-4.26,3.01-7.84,7.36-7.84c3.23,0,5.34,1.76,5.34,2.72
		c0,0.54-0.45,0.96-0.93,0.96c-0.29,0-0.58-0.13-0.83-0.45c-0.83-1.06-2.21-1.57-3.58-1.57c-3.14,0-5.47,2.59-5.47,6.02
		c0,3.01,1.98,5.95,5.6,5.95c1.6,0,3.17-0.61,4.03-1.82c0.26-0.35,0.54-0.48,0.83-0.48c0.54,0,1.02,0.45,1.02,0.99
		C74.1,32.23,71.7,34.37,68.24,34.37z"/>
	<path class="st1" d="M84.34,34.4c-4.06,0-7.23-3.04-7.23-7.55c0-4.67,3.36-7.74,7.13-7.74c4.38,0,6.3,3.42,6.3,5.25
		c0,1.22-0.74,2.11-2.34,2.14c-0.74,0.03-1.82,0.03-3.01,0.03c-2.4,0-5.12-0.03-5.82-0.03c-0.32,0-0.38,0.13-0.38,0.58
		c0,3.49,2.3,5.63,5.38,5.63c2.34,0,3.65-0.99,4.64-2.11c0.19-0.19,0.42-0.29,0.64-0.29c0.48,0,0.96,0.42,0.96,0.93
		C90.61,31.97,88.37,34.4,84.34,34.4z M84.27,20.71c-3.07,0-5.02,2.75-5.02,3.94c0,0.32,0.29,0.32,4,0.32c1.66,0,3.46,0,4.35-0.03
		c0.77-0.03,1.06-0.38,1.06-0.9C88.66,23.11,87.54,20.71,84.27,20.71z"/>
	<path class="st1" d="M97.36,33.09c0,0.67-0.48,0.99-0.99,0.99c-0.51,0-0.99-0.32-0.99-0.99v-0.03c0.06-2.3,0.06-6.98,0.06-11.36
		c0-4.42,0-8.61-0.06-9.92v-0.03c0-0.7,0.51-1.02,1.02-1.02c0.48,0,0.96,0.32,0.96,0.96v0.03c-0.03,1.47-0.06,6.24-0.06,11.07
		c0,3.97,0.03,8,0.06,10.27V33.09z"/>
</g>
</svg>
