<?xml version="1.0" encoding="utf-8"?>
<!-- Generator: Adobe Illustrator 23.0.2, SVG Export Plug-In . SVG Version: 6.00 Build 0)  -->
<svg version="1.1" id="レイヤー_1" xmlns="http://www.w3.org/2000/svg" xmlns:xlink="http://www.w3.org/1999/xlink" x="0px"
	 y="0px" viewBox="0 0 100 45" style="enable-background:new 0 0 100 45;" xml:space="preserve">
<style type="text/css">
	.st0{fill:none;}
	.st1{fill:#FFFFFF;}
</style>
<g>
	<rect class="st0" width="100" height="45"/>
</g>
<g>
	<path class="st1" d="M22.7,34.4c-7.4,0-11.5-5.7-11.5-11.7c0-6,4-12.1,11.6-12.1c4.9,0,8.1,2.9,8.1,4c0,0.6-0.5,1.1-1.1,1.1
		c-0.3,0-0.6-0.1-0.9-0.5c-1.5-1.9-3.9-2.8-6.3-2.8c-6.3,0-9.4,5.6-9.4,10.1c0,4.7,3.1,9.8,9.3,9.8c2.9,0,5.7-1.2,7.3-3.3
		c0.3-0.4,0.6-0.5,0.9-0.5c0.6,0,1.2,0.5,1.2,1.2C32,30.9,28.3,34.4,22.7,34.4z"/>
	<path class="st1" d="M38.3,33.1c0,0.7-0.5,1-1,1c-0.5,0-1-0.3-1-1v0c0.1-2.3,0.1-7,0.1-11.4c0-4.4,0-8.6-0.1-9.9v0c0-0.7,0.5-1,1-1
		c0.5,0,1,0.3,1,1v0c0,1.5-0.1,6.2-0.1,11.1C38.2,26.7,38.3,30.8,38.3,33.1L38.3,33.1z"/>
	<path class="st1" d="M43.2,26.7c0-4.4,3.1-7.6,7.4-7.6c4.3,0,7.5,3.2,7.5,7.6c0,4.6-3.2,7.7-7.5,7.7C46.3,34.4,43.2,31.3,43.2,26.7
		z M56.2,26.7c0-3.6-2.5-6-5.6-6s-5.5,2.4-5.5,6c0,3.6,2.5,6,5.5,6S56.2,30.3,56.2,26.7z"/>
	<path class="st1" d="M66.6,34.4c-3.3,0-5.2-1.9-5.2-2.8c0-0.5,0.5-0.9,1-0.9c0.3,0,0.6,0.1,0.8,0.4c0.7,1,1.9,1.6,3.4,1.6
		c1.8,0,3.2-1,3.2-2.4c0-1.7-1.4-2.3-5.1-4c-1.8-0.8-2.6-2.2-2.6-3.6c0-1.9,1.5-3.7,4.4-3.7c2.7,0,4.4,1.4,4.4,2.2
		c0,0.5-0.4,0.9-0.9,0.9c-0.3,0-0.6-0.1-0.8-0.4c-0.5-0.6-1.3-1.1-2.7-1.1c-1.6,0-2.6,1-2.6,2c0,0.8,0.5,1.6,1.6,2.1
		c0.9,0.4,2.4,1,3.4,1.5c2,1,2.8,2.5,2.8,4C71.7,32.1,70.2,34.4,66.6,34.4z"/>
	<path class="st1" d="M82.5,34.4c-4.1,0-7.2-3-7.2-7.6c0-4.7,3.4-7.7,7.1-7.7c4.4,0,6.3,3.4,6.3,5.2c0,1.2-0.7,2.1-2.3,2.1
		c-0.7,0-1.8,0-3,0c-2.4,0-5.1,0-5.8,0c-0.3,0-0.4,0.1-0.4,0.6c0,3.5,2.3,5.6,5.4,5.6c2.3,0,3.6-1,4.6-2.1c0.2-0.2,0.4-0.3,0.6-0.3
		c0.5,0,1,0.4,1,0.9C88.8,32,86.6,34.4,82.5,34.4z M82.5,20.7c-3.1,0-5,2.8-5,3.9c0,0.3,0.3,0.3,4,0.3c1.7,0,3.5,0,4.4,0
		c0.8,0,1.1-0.4,1.1-0.9C86.8,23.1,85.7,20.7,82.5,20.7z"/>
</g>
</svg>
