<?xml version="1.0" encoding="utf-8"?>
<!-- Generator: Adobe Illustrator 23.0.2, SVG Export Plug-In . SVG Version: 6.00 Build 0)  -->
<svg version="1.1" id="レイヤー_1" xmlns="http://www.w3.org/2000/svg" xmlns:xlink="http://www.w3.org/1999/xlink" x="0px"
	 y="0px" viewBox="0 0 100 45" style="enable-background:new 0 0 100 45;" xml:space="preserve">
<style type="text/css">
	.st0{fill:none;}
	.st1{fill:#FFFFFF;}
</style>
<g>
	<rect class="st0" width="100" height="45"/>
</g>
<g>
	<path class="st1" d="M27.36,22.53c0-6.94,4.96-11.97,11.62-11.97S50.6,15.58,50.6,22.53c0,7.2-4.96,11.9-11.62,11.9
		S27.36,29.73,27.36,22.53z M48.51,22.53c0-6.11-4.25-10.18-9.54-10.18c-5.28,0-9.54,4.06-9.54,10.18c0,6.08,4.26,10.08,9.54,10.08
		C44.26,32.61,48.51,28.61,48.51,22.53z"/>
	<path class="st1" d="M58.02,33.25c0,0.61-0.54,0.93-1.09,0.93c-0.51,0-1.06-0.32-1.06-0.93v-0.03c0.06-3.49,0.1-7.78,0.1-11.81
		c0-3.65-0.03-7.07-0.1-9.57v-0.03c0-0.64,0.54-0.99,1.09-0.99c0.51,0,1.06,0.35,1.06,0.99v0.03c-0.03,1.7-0.06,3.52-0.06,5.09
		c0,1.6,0.03,2.91,0.03,3.58c0,0.42,0.1,0.64,1.02,0.64c0.54,0,1.09-0.03,1.95-0.9c2.5-2.59,6.72-7.2,8.06-8.99
		c0.22-0.29,0.54-0.42,0.83-0.42c0.58,0,1.12,0.48,1.12,1.02c0,0.45-0.06,0.77-8.64,9.54c-0.19,0.19-0.29,0.35-0.29,0.48
		c0,0.16,0.1,0.29,0.26,0.48c3.07,3.14,7.29,7.1,10.01,9.79c0.22,0.22,0.32,0.51,0.32,0.8c0,0.61-0.51,1.22-1.12,1.22
		c-0.29,0-0.64-0.16-0.93-0.48c-2.69-2.98-6.78-7.01-9.66-10.11c-0.22-0.26-0.67-0.61-1.63-0.61c-0.29,0-0.54,0.03-0.8,0.03
		c-0.22,0-0.51,0.06-0.51,0.54c-0.03,0.77-0.03,2.37-0.03,4.35c0,1.63,0,3.49,0.06,5.31v0.05H58.02z"/>
</g>
</svg>
