<?xml version="1.0" encoding="utf-8"?>
<!-- Generator: Adobe Illustrator 23.0.3, SVG Export Plug-In . SVG Version: 6.00 Build 0)  -->
<svg version="1.1" id="レイヤー_1" xmlns="http://www.w3.org/2000/svg" xmlns:xlink="http://www.w3.org/1999/xlink" x="0px"
	 y="0px" viewBox="0 0 100 100" style="enable-background:new 0 0 100 100;" xml:space="preserve">
<style type="text/css">
	.st0{fill:#312F2F;}
	.st1{fill:#FFFFFF;}
</style>
<path class="st0" d="M50,100L50,100C22.4,100,0,77.6,0,50l0,0C0,22.4,22.4,0,50,0l0,0c27.6,0,50,22.4,50,50l0,0
	C100,77.6,77.6,100,50,100z"/>
<path class="st1" d="M76,64.8c-3-5.3-9.8-7.1-15-4c-1.1,0.6-2.1,1.5-2.9,2.4l-3.9-6.8l14.5-25c2.4-4.1,1.8-9.2-1.2-12.6L57.2,36.7
	L50,49.1l-7.2-12.4l-10.3-18c-2.9,3.4-3.6,8.5-1.2,12.6l14.5,25l-3.9,6.8c-0.8-0.9-1.7-1.7-2.9-2.4c-5.3-3-12-1.2-15,4s-1.2,12,4,15
	c1.1,0.6,2.3,1.1,3.5,1.3c4.5,0.8,9.1-1.2,11.5-5.3l7-12.1l7,12.1c2.4,4.1,7.1,6.1,11.5,5.3c1.2-0.2,2.4-0.6,3.5-1.3
	C77.3,76.8,79.1,70.1,76,64.8z M36.7,72.1c-1,1.8-3.3,2.4-5,1.3c-1.8-1-2.4-3.3-1.3-5c1-1.8,3.3-2.4,5-1.3
	C37.1,68.1,37.7,70.4,36.7,72.1z M68.3,73.5c-1.8,1-4,0.4-5-1.3c-1-1.8-0.4-4,1.3-5c1.8-1,4-0.4,5,1.3
	C70.7,70.2,70.1,72.5,68.3,73.5z"/>
</svg>
