<?xml version="1.0" encoding="utf-8"?>
<!-- Generator: Adobe Illustrator 23.0.3, SVG Export Plug-In . SVG Version: 6.00 Build 0)  -->
<svg version="1.1" id="レイヤー_1" xmlns="http://www.w3.org/2000/svg" xmlns:xlink="http://www.w3.org/1999/xlink" x="0px"
	 y="0px" viewBox="0 0 32 32" style="enable-background:new 0 0 32 32;" xml:space="preserve">
<style type="text/css">
	.st0{fill:none;}
	.st1{opacity:0.75;}
</style>
<rect class="st0" width="32" height="32"/>
<g class="st1">
	<g>
		<path d="M26.6,26.6L26.6,26.6c-0.8,0.8-2,0.8-2.8,0L5.4,8.2c-0.8-0.8-0.8-2,0-2.8l0,0c0.8-0.8,2-0.8,2.8,0l18.4,18.4
			C27.4,24.6,27.4,25.8,26.6,26.6z"/>
	</g>
	<g>
		<path d="M5.4,26.6L5.4,26.6c0.8,0.8,2,0.8,2.8,0L26.6,8.2c0.8-0.8,0.8-2,0-2.8l0,0c-0.8-0.8-2-0.8-2.8,0L5.4,23.8
			C4.6,24.6,4.6,25.8,5.4,26.6z"/>
	</g>
</g>
</svg>
