<?xml version="1.0" encoding="utf-8"?>
<!-- Generator: Adobe Illustrator 23.0.3, SVG Export Plug-In . SVG Version: 6.00 Build 0)  -->
<svg version="1.1" id="レイヤー_1" xmlns="http://www.w3.org/2000/svg" xmlns:xlink="http://www.w3.org/1999/xlink" x="0px"
	 y="0px" viewBox="0 0 32 32" style="enable-background:new 0 0 32 32;" xml:space="preserve">
<style type="text/css">
	.st0{fill:none;}
	.st1{opacity:0.75;}
</style>
<rect class="st0" width="32" height="32"/>
<path class="st1" d="M21.2,4.8H10.8c-3.3,0-6,2.7-6,6v10.4c0,3.3,2.7,6,6,6h10.4c3.3,0,6-2.7,6-6V10.8C27.2,7.5,24.5,4.8,21.2,4.8z
	 M23.2,21.2c0,1.1-0.9,2-2,2H10.8c-1.1,0-2-0.9-2-2V10.8c0-1.1,0.9-2,2-2h10.4c1.1,0,2,0.9,2,2V21.2z"/>
</svg>
