<?xml version="1.0" encoding="utf-8"?>
<!-- Generator: Adobe Illustrator 23.0.3, SVG Export Plug-In . SVG Version: 6.00 Build 0)  -->
<svg version="1.1" id="レイヤー_1" xmlns="http://www.w3.org/2000/svg" xmlns:xlink="http://www.w3.org/1999/xlink" x="0px"
	 y="0px" viewBox="0 0 32 32" style="enable-background:new 0 0 32 32;" xml:space="preserve">
<style type="text/css">
	.st0{fill:none;}
	.st1{opacity:0.75;}
</style>
<rect class="st0" width="32" height="32"/>
<path class="st0" d="M11,15v2.4c0,0.6-0.4,1-1,1H5c-0.6,0-1-0.4-1-1v-5c0-0.6,0.4-1,1-1h2.4C7.6,13.3,9.1,14.8,11,15z"/>
<path class="st0" d="M12.4,4h5c0.6,0,1,0.4,1,1v5c0,0.6-0.4,1-1,1h-2.6c-0.5-1.6-1.8-2.9-3.4-3.4V5C11.4,4.4,11.8,4,12.4,4z"/>
<path class="st1" d="M23.2,4.8h-7c-2.2,0-4,1.8-4,4v3.4H9.8c-2.8,0-5,2.2-5,5v5c0,2.8,2.2,5,5,5h5c2.8,0,5-2.2,5-5v-2.4h3.4
	c2.2,0,4-1.8,4-4v-7C27.2,6.6,25.4,4.8,23.2,4.8z M15.8,22.2c0,0.6-0.4,1-1,1h-5c-0.6,0-1-0.4-1-1v-5c0-0.6,0.4-1,1-1h2.4h2.6
	c0.6,0,1,0.4,1,1v2.6V22.2z M23.2,14.8c0,0.6-0.4,1-1,1h-2.6c-0.5-1.6-1.8-2.9-3.4-3.4V9.8c0-0.6,0.4-1,1-1h5c0.6,0,1,0.4,1,1V14.8z
	"/>
</svg>
