<?xml version="1.0" encoding="utf-8"?>
<!-- Generator: Adobe Illustrator 23.0.2, SVG Export Plug-In . SVG Version: 6.00 Build 0)  -->
<svg version="1.1" id="レイヤー_1" xmlns="http://www.w3.org/2000/svg" xmlns:xlink="http://www.w3.org/1999/xlink" x="0px"
	 y="0px" viewBox="0 0 100 100" style="enable-background:new 0 0 100 100;" xml:space="preserve">
<style type="text/css">
	.st0{fill:#EF4644;}
</style>
<g>
	<path class="st0" d="M50,0C22.39,0,0,22.39,0,50s22.39,50,50,50s50-22.39,50-50S77.61,0,50,0z M50,95C25.15,95,5,74.85,5,50
		S25.15,5,50,5s45,20.15,45,45S74.85,95,50,95z"/>
</g>
<g>
	<path class="st0" d="M74.75,74.75L74.75,74.75c-1.17,1.17-3.07,1.17-4.24,0L25.25,29.49c-1.17-1.17-1.17-3.07,0-4.24l0,0
		c1.17-1.17,3.07-1.17,4.24,0l45.25,45.25C75.92,71.68,75.92,73.58,74.75,74.75z"/>
	<path class="st0" d="M74.75,25.25L74.75,25.25c1.17,1.17,1.17,3.07,0,4.24L29.49,74.75c-1.17,1.17-3.07,1.17-4.24,0l0,0
		c-1.17-1.17-1.17-3.07,0-4.24l45.25-45.25C71.68,24.08,73.58,24.08,74.75,25.25z"/>
</g>
</svg>
