<?xml version="1.0" encoding="utf-8"?>
<!-- Generator: Adobe Illustrator 23.0.2, SVG Export Plug-In . SVG Version: 6.00 Build 0)  -->
<svg version="1.1" id="レイヤー_1" xmlns="http://www.w3.org/2000/svg" xmlns:xlink="http://www.w3.org/1999/xlink" x="0px"
	 y="0px" viewBox="0 0 100 100" style="enable-background:new 0 0 100 100;" xml:space="preserve">
<style type="text/css">
	.st0{fill:#CFD7DF;}
</style>
<g>
	<path class="st0" d="M50,0C22.39,0,0,22.39,0,50s22.39,50,50,50s50-22.39,50-50S77.61,0,50,0z M50,95C25.15,95,5,74.85,5,50
		S25.15,5,50,5s45,20.15,45,45S74.85,95,50,95z"/>
</g>
<path class="st0" d="M50,81.5L50,81.5c-1.66,0-3-1.34-3-3v-49c0-1.66,1.34-3,3-3l0,0c1.66,0,3,1.34,3,3v49
	C53,80.16,51.66,81.5,50,81.5z"/>
<circle class="st0" cx="50" cy="18.5" r="4"/>
</svg>
