<?xml version="1.0" encoding="utf-8"?>
<!-- Generator: Adobe Illustrator 23.0.2, SVG Export Plug-In . SVG Version: 6.00 Build 0)  -->
<svg version="1.1" id="レイヤー_1" xmlns="http://www.w3.org/2000/svg" xmlns:xlink="http://www.w3.org/1999/xlink" x="0px"
	 y="0px" viewBox="0 0 100 100" style="enable-background:new 0 0 100 100;" xml:space="preserve">
<style type="text/css">
	.st0{fill:#BBD347;}
</style>
<g>
	<path class="st0" d="M50,0C22.39,0,0,22.39,0,50s22.39,50,50,50s50-22.39,50-50S77.61,0,50,0z M50,95C25.15,95,5,74.85,5,50
		S25.15,5,50,5s45,20.15,45,45S74.85,95,50,95z"/>
</g>
<g>
	<path class="st0" d="M44.34,74.12L44.34,74.12c-1.17,1.17-3.07,1.17-4.24,0L17.47,51.49c-1.17-1.17-1.17-3.07,0-4.24l0,0
		c1.17-1.17,3.07-1.17,4.24,0l22.63,22.63C45.51,71.05,45.51,72.95,44.34,74.12z"/>
	<path class="st0" d="M82.53,31.69L82.53,31.69c1.17,1.17,1.17,3.07,0,4.24L44.34,74.12c-1.17,1.17-3.07,1.17-4.24,0l0,0
		c-1.17-1.17-1.17-3.07,0-4.24l38.18-38.18C79.46,30.52,81.36,30.52,82.53,31.69z"/>
</g>
</svg>
