<?xml version="1.0" encoding="utf-8"?>
<!-- Generator: Adobe Illustrator 23.0.2, SVG Export Plug-In . SVG Version: 6.00 Build 0)  -->
<svg version="1.1" id="レイヤー_1" xmlns="http://www.w3.org/2000/svg" xmlns:xlink="http://www.w3.org/1999/xlink" x="0px"
	 y="0px" viewBox="0 0 100 100" style="enable-background:new 0 0 100 100;" xml:space="preserve">
<style type="text/css">
	.st0{fill:#FAD26A;}
</style>
<g>
	<path class="st0" d="M100,50c0-27.61-22.39-50-50-50S0,22.39,0,50c0,27.61,22.39,50,50,50S100,77.61,100,50z M95,50
		c0,24.85-20.15,45-45,45S5,74.85,5,50C5,25.15,25.15,5,50,5S95,25.15,95,50z"/>
</g>
<path class="st0" d="M50,18.5L50,18.5c-1.66,0-3,1.34-3,3v49c0,1.66,1.34,3,3,3h0c1.66,0,3-1.34,3-3v-49
	C53,19.84,51.66,18.5,50,18.5z"/>
<circle class="st0" cx="50" cy="81.5" r="4"/>
</svg>
