<?xml version="1.0" encoding="utf-8"?>
<!-- Generator: Adobe Illustrator 23.0.3, SVG Export Plug-In . SVG Version: 6.00 Build 0)  -->
<svg version="1.1" id="レイヤー_1" xmlns="http://www.w3.org/2000/svg" xmlns:xlink="http://www.w3.org/1999/xlink" x="0px"
	 y="0px" viewBox="0 0 100 100" style="enable-background:new 0 0 100 100;" xml:space="preserve">
<style type="text/css">
	.st0{fill:#312F2F;}
	.st1{fill:none;}
</style>
<g>
	<path class="st0" d="M52.2,74c0,1.5-1.2,2.3-2.4,2.3s-2.3-0.7-2.3-2.2V74c0.1-7.3,0.3-24.6,0.3-34.9c0-3.6,0-6.3-0.1-7.4
		c-0.1-2.7-0.9-3.6-3.7-3.6c-0.5,0-1,0-1.7,0.1H42c-1.5,0-2.3-1.1-2.3-2.2s0.8-2.3,2.3-2.4c1.4-0.1,2-0.1,3.5-0.1
		c4.1,0,6.5,2,6.6,5.8c0.1,1.2,0.1,3.2,0.1,5.7c0,6.8-0.1,17.5-0.1,27.8C52.1,66.7,52.1,70.5,52.2,74L52.2,74z"/>
</g>
<rect class="st1" width="100" height="100"/>
</svg>
