<?xml version="1.0" encoding="utf-8"?>
<!-- Generator: Adobe Illustrator 23.0.3, SVG Export Plug-In . SVG Version: 6.00 Build 0)  -->
<svg version="1.1" id="レイヤー_1" xmlns="http://www.w3.org/2000/svg" xmlns:xlink="http://www.w3.org/1999/xlink" x="0px"
	 y="0px" viewBox="0 0 100 100" style="enable-background:new 0 0 100 100;" xml:space="preserve">
<style type="text/css">
	.st0{fill:#312F2F;}
	.st1{fill:none;}
</style>
<g>
	<path class="st0" d="M63.2,76.2c-2.2-0.1-7.3-0.1-12.5-0.1c-5.1,0-10.3,0-12.5,0.1h-0.1c-2.6,0-4-1.4-4-3.2c0-1.1,0.5-2.4,1.6-3.6
		c5.4-6.3,14-14,20.6-21.9c3.2-3.7,4.5-7.5,4.5-10.7c0-6.4-5-9-9.8-9c-4.2,0-8.8,2.1-10.6,7.3c-0.4,1.3-1.4,1.8-2.2,1.8
		c-1.2,0-2.3-0.9-2.3-2.3c0-2.3,4.4-10.8,15.3-10.8c9,0,14.4,6,14.4,12.8c0,3.8-1.6,8.3-5.4,13c-6.2,7.7-14.1,14-20.7,21.6
		c-0.1,0.1-0.1,0.2-0.1,0.3c0,0.4,0.4,0.6,0.9,0.6c7.1,0,17.3-0.4,23-0.4c1.8,0,2.7,1.1,2.7,2.2S65,76.2,63.2,76.2L63.2,76.2z"/>
</g>
<rect class="st1" width="100" height="100"/>
</svg>
