<?xml version="1.0" encoding="utf-8"?>
<!-- Generator: Adobe Illustrator 23.0.3, SVG Export Plug-In . SVG Version: 6.00 Build 0)  -->
<svg version="1.1" id="レイヤー_1" xmlns="http://www.w3.org/2000/svg" xmlns:xlink="http://www.w3.org/1999/xlink" x="0px"
	 y="0px" viewBox="0 0 100 100" style="enable-background:new 0 0 100 100;" xml:space="preserve">
<style type="text/css">
	.st0{fill:#312F2F;}
	.st1{fill:none;}
</style>
<g>
	<path class="st0" d="M46,46.9c0-1.1,0.6-2.1,1.9-2.1h2.6c5.5-0.1,8.8-4.1,8.8-9.3c0-2.2-1.1-8.4-9.1-8.4c-5.9,0-8.6,3.7-9.5,5
		c-0.4,0.6-1,0.9-1.7,0.9c-1.1,0-2.2-1-2.2-2.2c0-1.6,4.6-7.6,13.5-7.6c7.8,0,13.5,4.8,13.5,12.4c0,4.7-2.7,9.3-7.9,11
		c7.1,1.8,10.7,7.3,10.7,14c0,9.3-7.3,16.1-17.2,16.1c-11.2,0-16-7.4-16-9.4c0-1.4,1.2-2.4,2.4-2.4c0.6,0,1.4,0.3,1.8,1
		c3,4.5,6.8,6.4,12.2,6.4c7,0,12.2-5.2,12.2-11.9c0-8.1-5.3-11.5-12-11.5h-1.9C46.7,49.1,46,48,46,46.9z"/>
</g>
<rect class="st1" width="100" height="100"/>
</svg>
