<?xml version="1.0" encoding="utf-8"?>
<!-- Generator: Adobe Illustrator 23.0.3, SVG Export Plug-In . SVG Version: 6.00 Build 0)  -->
<svg version="1.1" id="レイヤー_1" xmlns="http://www.w3.org/2000/svg" xmlns:xlink="http://www.w3.org/1999/xlink" x="0px"
	 y="0px" viewBox="0 0 100 100" style="enable-background:new 0 0 100 100;" xml:space="preserve">
<style type="text/css">
	.st0{fill:none;}
	.st1{fill:#312F2F;}
</style>
<rect class="st0" width="100" height="100"/>
<path class="st1" d="M73.3,33.3c-0.1-3.4-2.9-5.4-5.8-5.5c-3.8-0.1-7.6-0.2-11.2-0.2c-4,0-7.9,0-11.7,0.2c-3.6,0.1-5.9,2.2-6,5.1
	c-0.1,2.3-0.1,4.5-0.1,6.7c-2,0-4,0.1-5.9,0.2c-3.6,0.1-5.9,2.2-6,5.1c-0.1,3.9-0.1,7.8-0.1,11.6c0,3.4,0,6.7,0.1,9.9
	c0.1,3.5,2.2,5.5,6.3,5.7c3.4,0.1,6.7,0.2,10.2,0.2c4,0,8.1-0.1,12.3-0.2c3.4-0.1,5.8-2.5,5.9-5.9c0.1-1.9,0.2-3.9,0.2-6
	c2,0,3.9-0.1,5.9-0.2c3.4-0.1,5.8-2.5,5.9-5.9c0.1-3.2,0.2-6.6,0.2-10.2C73.5,40.5,73.4,36.8,73.3,33.3z M56.5,64.4
	c-0.1,3.6-1.8,3.6-12,3.6c-3.2,0-6.2,0-9.1-0.2c-2.9-0.1-3.9-0.5-4-3.3c-0.1-3.2-0.1-6.4-0.1-9.6c0-2.5,0-5,0.1-7.6
	c0.1-2.4,0.8-3.2,3.6-3.3c1.1,0,2.4-0.1,3.6-0.1c1.5,0,3.1,0,4.7,0c0.1,0,0.2,0,0.4,0c3.1,0,6.3,0,9.5,0.1c2.4,0,3.4,0.5,3.4,3.3
	c0,2.7,0.1,5.6,0.1,8.7c0,0.4,0,0.9,0,1.3c0,1,0,2.1,0,3.1C56.5,61.8,56.5,63.1,56.5,64.4z M68.5,52.4c-0.1,2.9-1.2,3.5-6.9,3.6
	c0-3.6-0.1-7.2-0.2-10.7c-0.1-3.4-2.9-5.4-5.8-5.5c-3.8-0.1-7.6-0.2-11.2-0.2c-0.4,0-0.7,0-1.1,0c0-1.4,0.1-2.9,0.1-4.3
	c0.1-2.4,0.8-3.2,3.6-3.3c2.6-0.1,5.6-0.1,8.7-0.1c3.1,0,6.3,0,9.5,0.1c2.4,0,3.4,0.5,3.4,3.3c0,3,0.1,6.5,0.1,10
	C68.6,47.7,68.6,50.1,68.5,52.4z"/>
</svg>
