<?xml version="1.0" encoding="utf-8"?>
<!-- Generator: Adobe Illustrator 23.0.3, SVG Export Plug-In . SVG Version: 6.00 Build 0)  -->
<svg version="1.1" id="レイヤー_1" xmlns="http://www.w3.org/2000/svg" xmlns:xlink="http://www.w3.org/1999/xlink" x="0px"
	 y="0px" viewBox="0 0 60 100" style="enable-background:new 0 0 60 100;" xml:space="preserve">
<style type="text/css">
	.st0{fill:#FF5A58;}
	.st1{fill:#FFFFFF;}
</style>
<g>
	<g>
		<path class="st0" d="M5.7,35.1L30,100l24.3-64.9C60.7,18.1,48.1,0,30,0h0C11.9,0-0.7,18.1,5.7,35.1z"/>
	</g>
	<path class="st1" d="M21.2,38.4l8-8c0.5-0.5,1.3-0.5,1.8,0l8,8c1,1,2.6,1,3.5,0c1-1,1-2.6,0-3.5l-8-8c-0.5-0.5-0.5-1.3,0-1.8l8-8
		c1-1,1-2.6,0-3.5c-1-1-2.6-1-3.5,0l-8,8c-0.5,0.5-1.3,0.5-1.8,0l-8-8c-1-1-2.6-1-3.5,0c-1,1-1,2.6,0,3.5l8,8c0.5,0.5,0.5,1.3,0,1.8
		l-8,8c-1,1-1,2.6,0,3.5C18.6,39.3,20.2,39.3,21.2,38.4z"/>
</g>
</svg>
