<?xml version="1.0" encoding="utf-8"?>
<!-- Generator: Adobe Illustrator 23.0.3, SVG Export Plug-In . SVG Version: 6.00 Build 0)  -->
<svg version="1.1" id="レイヤー_1" xmlns="http://www.w3.org/2000/svg" xmlns:xlink="http://www.w3.org/1999/xlink" x="0px"
	 y="0px" viewBox="0 0 60 100" style="enable-background:new 0 0 60 100;" xml:space="preserve">
<style type="text/css">
	.st0{fill:#CFE75B;}
	.st1{fill:#FFFFFF;}
</style>
<g>
	<g>
		<path class="st0" d="M30,0L30,0C11.9,0-0.7,18.1,5.7,35.1L30,100l24.3-64.9C60.7,18.1,48.1,0,30,0z"/>
	</g>
	<path class="st1" d="M30,41c8.3,0,15-6.7,15-15c0-8.3-6.7-15-15-15s-15,6.7-15,15C15,34.3,21.7,41,30,41z M30,16
		c5.5,0,10,4.5,10,10c0,5.5-4.5,10-10,10s-10-4.5-10-10C20,20.5,24.5,16,30,16z"/>
</g>
</svg>
