<?xml version="1.0" encoding="utf-8"?>
<!-- Generator: Adobe Illustrator 23.0.3, SVG Export Plug-In . SVG Version: 6.00 Build 0)  -->
<svg version="1.1" id="レイヤー_1" xmlns="http://www.w3.org/2000/svg" xmlns:xlink="http://www.w3.org/1999/xlink" x="0px"
	 y="0px" viewBox="0 0 100 100" style="enable-background:new 0 0 100 100;" xml:space="preserve">
<style type="text/css">
	.st0{fill:none;}
	.st1{fill:#312F2F;}
</style>
<rect class="st0" width="100" height="100"/>
<g>
	<path class="st1" d="M47.4,45.6l-0.1-20.2c0-1.9,1.3-2.9,2.6-2.9c1.4,0,2.7,1,2.7,2.9l-0.1,20.1l0.1,29.3c0,1.8-1.3,2.7-2.7,2.7
		c-1.3,0-2.6-0.9-2.6-2.7L47.4,45.6z"/>
	<g>
		<path class="st1" d="M30,71.9c-0.5,0-1.1,0-1.9,0c-4-0.1-6.3-3-6.4-7.2c0-4.4-0.1-8.4-0.1-12.4c0-5.5,0-10.8,0.1-16.9
			c0-4,2.2-7.1,6.4-7.2c0.8,0,1.4,0,1.9,0c1.1,0,1.7,0,3.5,0.1c1.6,0,2.3,1.2,2.3,2.3c0,1.2-0.8,2.4-2.4,2.4h-0.1
			c-1.9-0.1-3.1-0.1-4.5-0.1c-1.4,0-2.3,0.7-2.4,2.7c-0.1,3.6-0.2,7.3-0.2,11.2c0,5.6,0.1,11.5,0.2,17.7c0,2,1,2.8,2.4,2.8
			c3.3,0,4.3-0.1,4.5-0.1c0.1,0,0.2,0,0.4,0c1.4,0,2.2,1.2,2.2,2.4c0,1.2-0.8,2.4-2.4,2.4C31.7,71.9,31.1,71.9,30,71.9z"/>
		<path class="st1" d="M70,71.9c-1.1,0-1.7,0-3.5-0.1c-1.6,0-2.4-1.2-2.4-2.4c0-1.2,0.8-2.4,2.2-2.4c0.1,0,0.2,0,0.4,0
			c1.1,0.1,2.1,0.1,3.1,0.1c2.4,0,3.7,0,3.8-2.8c0.1-6.2,0.2-12.1,0.2-17.7c0-3.9,0-7.6-0.2-11.2c-0.1-2-1-2.7-2.4-2.7
			c-1.4,0-2.6,0-4.5,0.1h-0.1c-1.6,0-2.4-1.2-2.4-2.4c0-1.2,0.7-2.3,2.3-2.3c1.7,0,2.4-0.1,3.5-0.1c0.5,0,1.1,0,1.9,0
			c4.2,0.1,6.3,3.2,6.4,7.2c0.1,6.1,0.1,11.5,0.1,16.9c0,4,0,8-0.1,12.4c0,4.2-2.4,7-6.4,7.2C71.1,71.9,70.5,71.9,70,71.9z"/>
	</g>
</g>
</svg>
