<?xml version="1.0" encoding="utf-8"?>
<!-- Generator: Adobe Illustrator 23.0.3, SVG Export Plug-In . SVG Version: 6.00 Build 0)  -->
<svg version="1.1" id="レイヤー_1" xmlns="http://www.w3.org/2000/svg" xmlns:xlink="http://www.w3.org/1999/xlink" x="0px"
	 y="0px" viewBox="0 0 100 100" style="enable-background:new 0 0 100 100;" xml:space="preserve">
<style type="text/css">
	.st0{fill:none;}
	.st1{fill:#312F2F;}
</style>
<rect class="st0" width="100" height="100"/>
<g>
	<g>
		<path class="st1" d="M68.5,62v-0.2c0-0.8,0.7-1.2,1.3-1.2c0.7,0,1.4,0.4,1.4,1.3c0,1.3,0,2.4,0,3.5v1.5c-0.1,3.3-2.4,5.6-6.2,5.6
			c-4.5,0-8.6,0.1-12.7,0.1c-5.6,0-11.1,0-17.3-0.1c-3.7,0-6.1-2.1-6.3-5.5c0-0.8,0-1.4,0-1.9c0-3.7,0-4.6,1.4-4.6
			c0.7,0,1.4,0.5,1.4,1.4V62c-0.1,1.9-0.1,3.1-0.1,4.5c0,1.9,1.2,3.3,3.8,3.4c3.7,0.1,7.5,0.2,11.5,0.2c5.8,0,11.8-0.1,18.1-0.2
			c2.6,0,3.8-1.4,3.8-3.3C68.6,63.4,68.6,62.9,68.5,62z"/>
		<path class="st1" d="M64.8,30.1c-6.3-0.1-12.3-0.2-18.1-0.2c-3.9,0-7.8,0-11.5,0.2c-2.6,0.1-3.8,1.4-3.8,3.4c0,1.4,0,2.6,0.1,4.5
			v0.1c0,0.9-0.7,1.4-1.4,1.4c-1.4,0-1.4-1-1.4-4.7c0-0.5,0-1.1,0-1.9c0.1-3.5,2.6-5.5,6.3-5.5c6.2-0.1,11.7-0.1,17.3-0.1
			c4,0,8.2,0,12.7,0.1c3.8,0,6.1,2.3,6.2,5.6v1.5c0,1.2,0,2.2,0,3.6c0,0.9-0.7,1.3-1.4,1.3c-0.7,0-1.3-0.4-1.3-1.2V38
			c0.1-0.6,0.1-1.1,0.1-4.6C68.6,31.5,67.4,30.2,64.8,30.1z"/>
	</g>
	<g>
		<path class="st1" d="M47.3,51.4l-23,0c-1.1,0-1.8-0.7-1.8-1.4c0-0.7,0.6-1.4,1.8-1.4l22.9,0.1l28.8-0.1c1,0,1.6,0.7,1.6,1.4
			c0,0.7-0.5,1.4-1.6,1.4L47.3,51.4z"/>
	</g>
</g>
</svg>
