<?xml version="1.0" encoding="utf-8"?>
<!-- Generator: Adobe Illustrator 23.0.3, SVG Export Plug-In . SVG Version: 6.00 Build 0)  -->
<svg version="1.1" id="レイヤー_1" xmlns="http://www.w3.org/2000/svg" xmlns:xlink="http://www.w3.org/1999/xlink" x="0px"
	 y="0px" viewBox="0 0 100 100" style="enable-background:new 0 0 100 100;" xml:space="preserve">
<style type="text/css">
	.st0{fill:none;}
	.st1{fill:#312F2F;}
</style>
<rect class="st0" width="100" height="100"/>
<g>
	<path class="st1" d="M45.6,52.6l-20.2,0.1c-1.9,0-2.9-1.3-2.9-2.6c0-1.4,1-2.7,2.9-2.7l20.1,0.1l29.3-0.1c1.8,0,2.7,1.3,2.7,2.7
		c0,1.3-0.9,2.6-2.7,2.6L45.6,52.6z"/>
	<g>
		<path class="st1" d="M71.9,70c0,0.5,0,1.1,0,1.9c-0.1,4-3,6.3-7.2,6.4c-4.4,0-8.4,0.1-12.4,0.1c-5.5,0-10.8,0-16.9-0.1
			c-4,0-7.1-2.2-7.2-6.4c0-0.8,0-1.4,0-1.9c0-1.1,0-1.7,0.1-3.5c0-1.6,1.2-2.3,2.3-2.3c1.2,0,2.4,0.8,2.4,2.4v0.1
			c-0.1,1.9-0.1,3.1-0.1,4.5c0,1.4,0.7,2.3,2.7,2.4c3.6,0.1,7.3,0.2,11.2,0.2c5.6,0,11.5-0.1,17.7-0.2c2,0,2.8-1,2.8-2.4
			c0-3.3-0.1-4.3-0.1-4.5c0-0.1,0-0.2,0-0.4c0-1.4,1.2-2.2,2.4-2.2c1.2,0,2.4,0.8,2.4,2.4C71.9,68.3,71.9,68.9,71.9,70z"/>
		<path class="st1" d="M71.9,30c0,1.1,0,1.7-0.1,3.5c0,1.6-1.2,2.4-2.4,2.4c-1.2,0-2.4-0.8-2.4-2.2c0-0.1,0-0.2,0-0.4
			c0.1-1.1,0.1-2.1,0.1-3.1c0-2.4,0-3.7-2.8-3.8c-6.2-0.1-12.1-0.2-17.7-0.2c-3.9,0-7.6,0-11.2,0.2c-2,0.1-2.7,1-2.7,2.4
			c0,1.4,0,2.6,0.1,4.5v0.1c0,1.6-1.2,2.4-2.4,2.4c-1.2,0-2.3-0.7-2.3-2.3c0-1.7-0.1-2.4-0.1-3.5c0-0.5,0-1.1,0-1.9
			c0.1-4.2,3.2-6.3,7.2-6.4c6.1-0.1,11.5-0.1,16.9-0.1c4,0,8,0,12.4,0.1c4.2,0,7,2.4,7.2,6.4C71.9,28.9,71.9,29.5,71.9,30z"/>
	</g>
</g>
</svg>
