<?xml version="1.0" encoding="utf-8"?>
<!-- Generator: Adobe Illustrator 23.0.2, SVG Export Plug-In . SVG Version: 6.00 Build 0)  -->
<svg version="1.1" id="レイヤー_1" xmlns="http://www.w3.org/2000/svg" xmlns:xlink="http://www.w3.org/1999/xlink" x="0px"
	 y="0px" viewBox="0 0 100 100" style="enable-background:new 0 0 100 100;" xml:space="preserve">
<style type="text/css">
	.st0{fill:#312F2F;}
	.st1{fill:none;}
</style>
<g>
	<path class="st0" d="M21.6,51.6c-1.1,0-1.7-0.9-1.7-1.7c0-0.9,0.6-1.7,1.7-1.7c11.3,0.1,42.7,0.1,53,0.1c0.6,0,0.9-0.1,0.9-0.3
		s-0.2-0.4-0.6-0.6c-2.8-1.7-10.2-6-12.5-7.5c-0.6-0.4-0.9-0.9-0.9-1.4c0-0.9,0.7-1.7,1.7-1.7c0.6,0,1.3,0.2,14,8.8
		c1.9,1.3,2.7,2.9,2.7,4.4c0,1.6-0.9,3.2-2.7,4.3c-2.9,1.9-10.7,7.1-13,8.4c-0.4,0.2-0.8,0.4-1.2,0.4c-1,0-1.7-0.9-1.7-1.7
		c0-0.5,0.2-1.1,0.8-1.4c2.2-1.4,9.9-5.9,12.6-7.6c0.4-0.2,0.5-0.4,0.5-0.6c0-0.2-0.3-0.4-0.9-0.4C64.3,51.5,32.9,51.5,21.6,51.6z"
		/>
</g>
<rect x="0" y="0" class="st1" width="100" height="100"/>
</svg>
