<?xml version="1.0" encoding="utf-8"?>
<!-- Generator: Adobe Illustrator 23.0.3, SVG Export Plug-In . SVG Version: 6.00 Build 0)  -->
<svg version="1.1" id="レイヤー_1" xmlns="http://www.w3.org/2000/svg" xmlns:xlink="http://www.w3.org/1999/xlink" x="0px"
	 y="0px" viewBox="0 0 250 75" style="enable-background:new 0 0 250 75;" xml:space="preserve">
<style type="text/css">
	.st0{fill:#312F2F;}
	.st1{fill:none;}
</style>
<g>
	<path class="st0" d="M44.5,53.2c0,2.3-1.8,3.8-3.8,3.8c-1.3,0-2.7-0.7-3.5-2C33.3,49,21.8,27.8,19,23c-0.3-0.7-0.8-1-1.2-1
		c-0.7,0-0.7,0.7-0.7,4.5c0,6.8,0.2,23.3,0.3,29l0,0c0,1-0.8,1.7-1.8,1.7s-1.8-0.5-1.8-1.7l0,0C14,50.7,14,45,14,39.5
		c0-6.3,0-12.3-0.2-17.2v-0.2c0-2.8,1.7-4.2,3.5-4.2c1.5,0,3,0.8,4,2.5C24.7,26,35.7,46,39.5,52.2c0.3,0.5,0.7,0.8,1,0.8
		c0.7,0,0.7-1,0.7-2.7c0-5.7-0.2-25.5-0.3-30.5l0,0c0-1.2,0.8-1.8,1.8-1.8s1.8,0.7,1.8,1.8l0,0c-0.2,3-0.2,7-0.2,11.2
		C44.3,38.7,44.3,47.5,44.5,53.2L44.5,53.2z"/>
	<path class="st0" d="M52.3,44.3c0-7.3,5.2-12.7,12.3-12.7S77.2,37,77.2,44.3c0,7.7-5.3,12.8-12.5,12.8C57.7,57.2,52.3,52,52.3,44.3
		z M74,44.3c0-6-4.2-10-9.3-10s-9.2,4-9.2,10s4.2,10,9.2,10S74,50.3,74,44.3z"/>
	<path class="st0" d="M103,22.5c-2.5,0-2.5-2.3-2.5-2.7c0-1.7,1.5-2.5,2.5-2.5c0.8,0,2.7,0.5,2.7,2.5
		C105.7,21.7,104.3,22.5,103,22.5z M104.8,55.3c0,1-0.8,1.7-1.7,1.7c-0.8,0-1.7-0.5-1.7-1.7c0-4.5,0-10.8,0-15.7c0-2.5,0-4.7,0-6.2
		l0,0c0-1,0.8-1.5,1.7-1.5c0.8,0,1.7,0.5,1.7,1.5l0,0c0,2.2-0.2,6.7-0.2,11.2C104.7,48.3,104.8,52.2,104.8,55.3L104.8,55.3z"/>
	<path class="st0" d="M146.3,55.3c0-2.2,0-6.2,0-9.5c0-2.5,0-4.7,0-5.7c-0.2-4.2-2.7-5.7-5.3-5.7c-3.3,0-7.2,2.7-7.3,6.2
		c0,0.8,0,2.7,0,4.7c0,3.3,0,7.3,0.2,10l0,0c0,1-0.8,1.5-1.7,1.5c-0.7,0-1.5-0.5-1.5-1.5l0,0c0-2.2,0-6.2,0-9.5c0-2.5,0-4.7,0-5.7
		c-0.2-4.2-2.7-5.8-5.3-5.8c-3.3,0-7,2.7-7.2,6.7c0,0.8,0,2.7,0,4.7c0,3.3,0,7.3,0.2,9.7l0,0c0,1-0.7,1.7-1.5,1.7
		c-0.8,0-1.7-0.7-1.7-1.7l0,0c0.2-4.2,0.2-9.8,0.2-14.8c0-2.7,0-5.2,0-7.2l0,0c0-1,0.7-1.5,1.5-1.5c0.7,0,1.5,0.5,1.5,1.5v1.5
		c0,0.2,0,0.3,0,0.3s0.2,0,0.2-0.2c1.7-2.2,4.7-3.3,7.3-3.3c3.2,0,6,1.5,7.2,4.7c2-3.2,5.2-4.7,8.3-4.7c4.2,0,7.8,2.8,8,8
		c0,2.2,0.2,9,0.2,13.2v2.3c0,1.2-0.8,1.8-1.5,1.8C147,57,146.3,56.5,146.3,55.3L146.3,55.3z"/>
	<path class="st0" d="M174,52.8c-1.7,2.7-5.2,4.3-8.5,4.3c-5.3,0-8.7-3.7-8.7-7.3c0-2.7,1.8-5.3,5.7-6.7c3.3-1,7.7-1.8,9.8-2.2
		c0.7-0.2,0.8-0.3,0.8-0.7c0-0.3,0-0.7,0-0.8c0-3-1.2-5.2-5.5-5.2c-2.8,0-5,1.2-6.2,2.5c-0.3,0.3-0.7,0.5-1.2,0.5
		c-0.8,0-1.5-0.7-1.5-1.5c0-2,4.5-4.3,9-4.3c5,0,8.3,2.2,8.3,8.2c0,0.5,0,1,0,1.5c-0.2,1.8-0.3,4.2-0.3,6c0,4.5,0.8,5.5,3,6.7
		c0.5,0.2,0.7,0.7,0.7,1c0,0.7-0.7,1.7-1.7,1.7c-0.3,0-3-0.7-3.7-3.7C174.3,52.7,174.3,52.7,174,52.8
		C174.2,52.7,174.2,52.7,174,52.8z M173.3,46.2c0-0.7,0-1.2,0-1.8c0-0.5-0.2-0.7-0.5-0.7h-0.2c-8.3,1.3-12.8,2.3-12.8,6.2
		c0,2.2,2.2,4.5,5.7,4.5C170.5,54.3,173.3,50.7,173.3,46.2z"/>
	<path class="st0" d="M195.3,31.8c2.3,0,4.5,0.5,6.7,1.7c0.3,0.2,0.5,0.2,0.7,0.2c0.2,0,0.5,0,0.7-0.2c1.3-1,2.7-1.5,4.2-1.5
		c2.2,0,2.5,0.8,2.5,1.7s-0.5,1.5-1.3,1.5c-0.2,0-0.3,0-0.3,0c-0.3,0-0.7,0-0.8,0c-1.8,0-2.8,0.8-2.8,1.5c0,0.2,0,0.2,0.2,0.3
		c0.5,1.2,0.7,2.5,0.7,3.3c0,4.7-3.5,8-9.7,8.2c-3.5,0.2-6.8,1.8-6.8,4c0,1.7,2.5,1.8,5.2,1.8c7,0,7.3,0,8.7,0.3c4,0.7,7.2,3,7.2,7
		c0,5.3-5.2,9.5-13.3,9.5c-5.8,0-12.2-2.5-12.2-8c0-3,2.2-5.2,5-6.3c0.3-0.2,0.7-0.2,0.7-0.3c0,0-0.3,0-0.8-0.2
		c-1.8-0.5-3.2-1.7-3.2-3.5c0-1,0.3-3.2,3.7-4.8c0.3-0.2,0.5-0.3,0.5-0.5c0-0.2-0.3-0.2-0.7-0.5c-2-1.2-3.8-3.5-3.8-6.5
		C185.7,34.8,190.2,31.8,195.3,31.8L195.3,31.8z M197.2,56.8c-0.8,0-1.7,0-2.3,0c-3.7,0.2-7.7,2.5-7.7,5.8c0,2.5,2.5,5.3,8.8,5.3
		c5.5,0,10.7-2.2,10.7-6.5C206.5,56.8,200.8,56.8,197.2,56.8z M195.3,34.2c-3.5,0-6.8,2-6.8,5.8c0,5.8,6.2,5.8,6.7,5.8
		c0.7,0,7-0.3,7-5.8C202.3,34.5,196.3,34.2,195.3,34.2z"/>
	<path class="st0" d="M226,57.2c-6.8,0-12-5-12-12.7c0-7.8,5.7-12.8,11.8-12.8c7.3,0,10.5,5.7,10.5,8.7c0,2-1.2,3.5-3.8,3.5
		c-1.2,0-3,0-5,0c-4,0-8.5,0-9.7,0c-0.5,0-0.7,0.2-0.7,1c0,5.8,3.8,9.3,9,9.3c3.8,0,6-1.7,7.7-3.5c0.3-0.3,0.7-0.5,1-0.5
		c0.8,0,1.7,0.7,1.7,1.5C236.3,53.2,232.7,57.2,226,57.2z M225.8,34.3c-5.2,0-8.3,4.7-8.3,6.5c0,0.5,0.5,0.5,6.7,0.5
		c2.8,0,5.8,0,7.3,0c1.3,0,1.8-0.7,1.8-1.5C233.2,38.3,231.3,34.3,225.8,34.3z"/>
</g>
<rect class="st1" width="250" height="75"/>
</svg>
