<?xml version="1.0" encoding="utf-8"?>
<!-- Generator: Adobe Illustrator 23.0.2, SVG Export Plug-In . SVG Version: 6.00 Build 0)  -->
<svg version="1.1" id="レイヤー_1" xmlns="http://www.w3.org/2000/svg" xmlns:xlink="http://www.w3.org/1999/xlink" x="0px"
	 y="0px" viewBox="0 0 100 100" style="enable-background:new 0 0 100 100;" xml:space="preserve">
<style type="text/css">
	.st0{fill:#312F2F;}
	.st1{fill:none;}
</style>
<g>
	<path class="st0" d="M25.4,51.5c-0.6,0-0.9,0.1-0.9,0.4c0,0.1,0.1,0.4,0.5,0.6c2.7,1.7,10.4,6.1,12.6,7.6c0.6,0.4,0.8,0.9,0.8,1.4
		c0,0.9-0.6,1.7-1.7,1.7c-0.4,0-0.7-0.1-1.2-0.4c-2.3-1.4-10.1-6.6-13-8.4C20.9,53.2,20,51.6,20,50c0-1.5,0.9-3.1,2.7-4.4
		c12.7-8.6,13.4-8.8,14-8.8c1,0,1.7,0.9,1.7,1.7c0,0.5-0.3,1.1-0.9,1.4c-2.2,1.4-9.6,5.8-12.5,7.5c-0.4,0.2-0.6,0.4-0.6,0.6
		s0.3,0.3,0.9,0.3c10.3,0,41.7,0,53-0.1c1.1,0,1.7,0.8,1.7,1.7c0,0.8-0.6,1.7-1.7,1.7C67.1,51.5,35.7,51.5,25.4,51.5z"/>
</g>
<rect x="0" y="0" class="st1" width="100" height="100"/>
</svg>
