<?xml version="1.0" encoding="utf-8"?>
<!-- Generator: Adobe Illustrator 23.0.3, SVG Export Plug-In . SVG Version: 6.00 Build 0)  -->
<svg version="1.1" id="レイヤー_1" xmlns="http://www.w3.org/2000/svg" xmlns:xlink="http://www.w3.org/1999/xlink" x="0px"
	 y="0px" viewBox="0 0 100 100" style="enable-background:new 0 0 100 100;" xml:space="preserve">
<style type="text/css">
	.st0{fill:none;}
	.st1{fill:#312F2F;}
</style>
<rect class="st0" width="100" height="100"/>
<path class="st1" d="M28.1,53.5c0.3-7.1,4.8-10.9,11.5-11c7.7-0.1,16.8-0.2,26.3-0.3c-4.7-1.9-10.2-4.2-11.6-4.7
	c-1.2-0.5-1.6-1.4-1.6-2.4c0-1.5,1.2-3.1,2.8-3.1c0.5,0,0.9,0.1,1.3,0.3c6.2,2.9,12.3,5.7,18.3,8.4c0.8,0.4,1.4,0.9,1.9,1.5
	c0.6,0.8,0.9,1.6,0.9,2.5c0,0.9-0.3,1.8-0.9,2.5c-0.5,0.6-1.1,1.1-1.9,1.5c-18.3,8.6-18.4,8.7-19.7,8.7c-1.7,0-2.9-1.6-2.9-3.2
	c0-1,0.5-1.9,1.7-2.4c2.4-0.9,7.6-3,11.8-4.7c-1.4,0-2.8,0-4.1,0c-8.4,0-16.1,0.1-21.9,0.3c-4.9,0.2-7,3-7.1,6.8
	c0,10,0.2,12.7,0.3,13.3V68c0,1.6-1.3,2.6-2.6,2.6c-1.3,0-2.5-0.9-2.5-2.6C28,65.1,28,62.5,28,59.8C28,57.8,28,55.8,28.1,53.5z"/>
</svg>
